<svg width="33" height="34" viewBox="0 0 33 34" fill="none" xmlns="http://www.w3.org/2000/svg">
<path d="M28.308 0.76416H25.3562V5.1921H20.928V8.14397H25.3562V12.5722H28.308V8.14397H32.736V5.1921H28.308V0.76416Z" fill="#4C91FF"/>
<path d="M0.264038 28.8082V33.2362H25.356V28.8082C25.356 24.7402 22.044 21.4282 17.976 21.4282H7.64404C3.57623 21.4282 0.264038 24.7402 0.264038 28.8082ZM3.21591 28.8082C3.21591 26.3603 5.19597 24.3803 7.64384 24.3803H17.9758C20.4237 24.3803 22.4038 26.3603 22.4038 28.8082V30.2843H3.21578L3.21591 28.8082Z" fill="#4C91FF"/>
<path d="M12.7921 19.9521C16.4641 19.9521 19.4521 16.9641 19.4521 13.2921C19.4521 9.62002 16.4641 6.63208 12.7921 6.63208C9.12002 6.63208 6.13208 9.62008 6.13208 13.2921C6.16824 16.9641 9.15627 19.9521 12.7921 19.9521ZM12.7921 9.62008C14.8442 9.62008 16.5001 11.2762 16.5001 13.3281C16.5001 15.3802 14.844 17.0001 12.7921 17.0001C10.74 17.0001 9.08408 15.344 9.08408 13.2921C9.08408 11.24 10.7761 9.62008 12.7921 9.62008Z" fill="#4C91FF"/>
</svg>
