<svg width="28" height="28" viewBox="0 0 28 28" fill="none" xmlns="http://www.w3.org/2000/svg">
<path d="M23.9712 0.489746H21.4785V4.22889H17.7392V6.72159H21.4785V10.461H23.9712V6.72159H27.7104V4.22889H23.9712V0.489746Z" fill="#8FF58B"/>
<path d="M0.289627 24.1714V27.9106H21.4784V24.1714C21.4784 20.7362 18.6816 17.9395 15.2464 17.9395H6.52162C3.08659 17.9395 0.289627 20.7363 0.289627 24.1714V24.1714ZM2.78232 24.1714C2.78232 22.1044 4.45437 20.4323 6.52146 20.4323H15.2463C17.3133 20.4323 18.9854 22.1044 18.9854 24.1714V25.4179H2.78221L2.78232 24.1714Z" fill="#8FF58B"/>
<path d="M10.8689 16.6928C13.9697 16.6928 16.4929 14.1696 16.4929 11.0688C16.4929 7.96797 13.9697 5.44482 10.8689 5.44482C7.768 5.44482 5.24486 7.96803 5.24486 11.0688C5.27539 14.1697 7.79862 16.6928 10.8689 16.6928V16.6928ZM10.8689 7.96802C12.6018 7.96802 14.0001 9.36653 14.0001 11.0992C14.0001 12.8321 12.6016 14.2001 10.8689 14.2001C9.13595 14.2001 7.73766 12.8016 7.73766 11.0689C7.73766 9.33597 9.16646 7.96802 10.8689 7.96802Z" fill="#8FF58B"/>
</svg>
