<svg width="36" height="27" viewBox="0 0 36 27" fill="none" xmlns="http://www.w3.org/2000/svg">
<path d="M6.99678 4.08938C7.40159 4.31014 7.54868 4.82532 7.32792 5.23012C6.0768 7.54858 5.52467 10.8238 5.78233 14.3933C5.81904 14.8718 5.4512 15.2766 5.00941 15.3133H4.93574C4.49422 15.3133 4.12615 14.9822 4.08941 14.5037C3.83169 10.5293 4.42055 7.07012 5.85573 4.42052C6.07674 4.0157 6.59192 3.86862 6.99672 4.08937L6.99678 4.08938Z" fill="#8FF58B"/>
<path d="M2.32318 3.97911C2.54394 3.5743 3.05912 3.42721 3.46392 3.64797C3.86873 3.86873 4.01581 4.3839 3.79505 4.7887C2.50693 7.21757 1.95506 10.6398 2.28619 14.3935C2.3229 14.872 1.99176 15.2768 1.51326 15.3135H1.43959C0.998072 15.3135 0.629991 14.9824 0.593257 14.5406C0.262117 10.4558 0.887948 6.70217 2.32312 3.97897L2.32318 3.97911Z" fill="#8FF58B"/>
<path d="M30.1808 9.46257C30.1441 8.98409 30.5119 8.5793 30.9537 8.54257C31.4322 8.50586 31.837 8.87371 31.8737 9.3155C32.1314 13.2899 31.5426 16.7491 30.1074 19.3987C29.9603 19.6931 29.6659 19.8402 29.3714 19.8402C29.2244 19.8402 29.1137 19.8035 28.9666 19.7299C28.5618 19.5091 28.4147 18.9939 28.6355 18.5891C29.8864 16.3073 30.4386 13.0691 30.1808 9.46271L30.1808 9.46257Z" fill="#8FF58B"/>
<path d="M33.6768 9.49898C33.6401 9.0205 33.9712 8.61572 34.4497 8.57898C34.9282 8.54202 35.333 8.87341 35.3697 9.35165C35.7378 13.4364 35.112 17.19 33.6401 19.9132C33.493 20.2077 33.1986 20.3548 32.9042 20.3548C32.7571 20.3548 32.6465 20.318 32.4994 20.2444C32.0946 20.0236 31.9475 19.5084 32.1682 19.1036C33.493 16.675 34.0082 13.2528 33.6768 9.49886L33.6768 9.49898Z" fill="#8FF58B"/>
<path d="M9.2048 19.9504C7.54886 18.552 7.88 15.9393 8.43187 13.3264C9.0944 10.2353 11.0081 1.77122 11.0081 1.77122C11.1921 1.03529 11.9281 0.556821 12.664 0.740821C13.3999 0.887909 13.8784 1.66082 13.6944 2.39676L12.2959 8.50562C12.2223 8.72638 12.3696 8.94714 12.5904 9.02081H12.6271C12.8478 9.09448 13.1056 8.94714 13.179 8.72638L15.6078 0.998375C15.8286 0.26244 16.6382 -0.179357 17.3374 0.0783748C18.0734 0.299135 18.4782 1.10877 18.2574 1.80798L15.8286 9.53598C15.7549 9.75674 15.9022 10.0145 16.123 10.0879C16.3438 10.1615 16.5645 10.0512 16.6382 9.86711L20.3551 1.25591C20.6495 0.556644 21.4592 0.225509 22.1584 0.519975C22.8576 0.851116 23.1888 1.66071 22.8943 2.35998L19.288 10.64C19.1776 10.8607 19.3247 11.1185 19.5824 11.2288L19.7295 11.2655C19.9136 11.3392 20.1343 11.2655 20.2447 11.0815L23.9247 4.53109C24.2928 3.86882 25.1391 3.64782 25.8384 4.0159C26.5006 4.38401 26.7216 5.26704 26.3535 5.92957C26.3535 5.92957 23.2624 11.1918 22.6735 12.3696C22.1216 13.4366 21.8272 14.0992 21.4224 15.0559C21.2016 15.5711 21.6801 16.16 22.232 16.0126C22.3791 15.9759 22.4897 15.939 22.5264 15.9023C22.6001 15.8656 22.7105 15.7919 22.8209 15.7182C23.3728 15.4238 24.2193 14.9086 24.7713 14.6511C25.6545 14.2463 26.4272 14.2463 26.9424 14.9089C27.4943 15.6081 27.3472 16.6385 26.6113 17.117C26.6113 17.117 22.1217 20.7233 19.6929 22.0114C18.8465 22.4529 17.7792 22.8577 16.8225 22.821L15.6817 25.9858C15.461 26.5747 14.8354 26.8691 14.2465 26.6851L8.76327 24.698C8.17441 24.4772 7.84327 23.8517 8.064 23.2261L9.2048 19.9504Z" fill="#8FF58B"/>
</svg>
