<svg width="35" height="35" viewBox="0 0 35 35" fill="none" xmlns="http://www.w3.org/2000/svg">
<path d="M26.1479 17.777C26.1479 20.8667 24.4995 23.7215 21.8238 25.2661C19.1483 26.8109 15.8515 26.8109 13.1758 25.2661C10.5001 23.7213 8.85171 20.8665 8.85171 17.777C9.32564 6.27881 25.6737 6.27545 26.1477 17.777H26.1479ZM23.4859 17.777C23.4859 15.6384 22.345 13.6624 20.4928 12.5931C18.6409 11.5238 16.3591 11.5238 14.5071 12.5931C12.6549 13.6624 11.5141 15.6384 11.5141 17.777C11.8411 25.7368 23.1398 25.7408 23.4856 17.777H23.4859Z" fill="black"/>
<path d="M8.51031 0.879883H26.4905C28.5931 0.881981 30.609 1.71783 32.0956 3.2047C33.5825 4.69131 34.4183 6.70714 34.4204 8.80979V26.79C34.4183 28.8926 33.5825 30.9085 32.0956 32.3951C30.609 33.8819 28.5931 34.7178 26.4905 34.7199H8.51031C6.40766 34.7178 4.39177 33.8819 2.90522 32.3951C1.41835 30.9085 0.582481 28.8926 0.580402 26.79V8.80979C0.5825 6.70714 1.41835 4.69125 2.90522 3.2047C4.39183 1.71783 6.40766 0.881964 8.51031 0.879883ZM3.21233 26.7896C3.21128 28.1952 3.76915 29.5433 4.76293 30.537C5.75671 31.5307 7.10481 32.0886 8.51031 32.0876H26.4905C27.8961 32.0887 29.2442 31.5308 30.2379 30.537C31.2316 29.5432 31.7895 28.1951 31.7885 26.7896V8.80945C31.7895 7.40389 31.2317 6.05579 30.2379 5.06208C29.2441 4.06836 27.896 3.51047 26.4905 3.51148H8.51031C7.10474 3.51043 5.75665 4.0683 4.76293 5.06208C3.76922 6.05586 3.21133 7.40395 3.21233 8.80945V26.7896Z" fill="black"/>
<path d="M8.1001 6.896C8.49902 6.896 8.88144 7.05441 9.16364 7.33636C9.44559 7.61857 9.604 8.00097 9.604 8.3999C9.604 8.79884 9.44559 9.18124 9.16364 9.46345C8.88143 9.74539 8.49903 9.90381 8.1001 9.90381C7.70116 9.90381 7.31875 9.74539 7.03655 9.46345C6.75461 9.18124 6.59619 8.79884 6.59619 8.3999C6.59619 8.00097 6.75461 7.61856 7.03655 7.33636C7.31876 7.05441 7.70116 6.896 8.1001 6.896Z" fill="black"/>
</svg>
