<svg width="26" height="25" viewBox="0 0 26 25" fill="none" xmlns="http://www.w3.org/2000/svg">
<path d="M22.6384 0H3.36274C1.50613 0 0 1.4839 0 3.31322V17.0567C0 18.886 1.50608 20.3699 3.36274 20.3699H5.51556V24.2228C5.51556 24.9847 6.01752 25.2287 6.63042 24.7641L12.4381 20.3699H22.6373C24.4939 20.3699 26 18.886 26 17.0567V3.3121C26 1.48283 24.495 0 22.6384 0ZM6.39787 12.2628C5.2344 12.2628 4.28969 11.332 4.28969 10.1848C4.28969 9.03758 5.23435 8.10683 6.39787 8.10683C7.56337 8.10683 8.50803 9.03758 8.50803 10.1848C8.50803 11.332 7.56246 12.2628 6.39787 12.2628ZM13.0006 12.2628C11.8371 12.2628 10.8924 11.332 10.8924 10.1848C10.8924 9.03758 11.837 8.10683 13.0006 8.10683C14.1649 8.10683 15.1096 9.03758 15.1096 10.1848C15.1096 11.332 14.1649 12.2628 13.0006 12.2628ZM19.6021 12.2628C18.4387 12.2628 17.494 11.332 17.494 10.1848C17.494 9.03758 18.4386 8.10683 19.6021 8.10683C20.7676 8.10683 21.7123 9.03758 21.7123 10.1848C21.7123 11.332 20.7676 12.2628 19.6021 12.2628Z" fill="#8FF58B"/>
</svg>
