<svg width="31" height="29" viewBox="0 0 31 29" fill="none" xmlns="http://www.w3.org/2000/svg">
<path d="M5.57686 3.24419H0.646472C0.294426 3.24419 0.00897217 3.52965 0.00897217 3.8817V23.2369C0.00925675 23.3431 0.0357241 23.4478 0.0860983 23.5414L2.55187 28.0734V28.0736C2.66343 28.2788 2.87831 28.4063 3.11196 28.4063C3.34562 28.4063 3.56049 28.2788 3.67205 28.0736L6.13725 23.5417V23.5414C6.18819 23.4481 6.21494 23.3433 6.21494 23.2369V3.8817C6.21494 3.71264 6.14778 3.55014 6.02825 3.43061C5.90843 3.31108 5.74621 3.24391 5.57687 3.24419H5.57686ZM4.93936 4.51919V6.98497H1.28397V4.51919H4.93936ZM3.11108 26.4346L1.28397 23.0752V8.26048H4.93994V23.0752L3.11108 26.4346ZM30.944 8.83233C30.9118 8.7757 30.8796 8.71963 30.8472 8.66328L24.242 0.630789C24.2357 0.623105 24.2249 0.619974 24.2183 0.61229C24.1759 0.568746 24.1276 0.531178 24.0749 0.500731C24.0547 0.484793 24.0334 0.469994 24.0112 0.456618C23.9309 0.42019 23.8441 0.400553 23.7562 0.399414H9.64009C9.28805 0.399414 9.00259 0.684868 9.00259 1.03691V27.7689C9.00259 27.938 9.06976 28.1002 9.18929 28.2197C9.30882 28.3392 9.47104 28.4064 9.64009 28.4064H30.3541C30.5232 28.4064 30.6854 28.3392 30.8049 28.2197C30.9244 28.1002 30.9916 27.938 30.9916 27.7689V9.06577C30.9907 8.98522 30.9745 8.90582 30.9438 8.83183L30.944 8.83233ZM24.3859 2.81106L29.0041 8.42732H24.3859V2.81106ZM10.2779 27.1315V1.66939H23.1109V9.06438C23.1109 9.23343 23.1781 9.39566 23.2976 9.51519C23.4172 9.63472 23.5794 9.70188 23.7484 9.70188H29.7168V27.1315H10.2779Z" fill="#8FF58B"/>
</svg>
