<svg width="35" height="32" viewBox="0 0 35 32" fill="none" xmlns="http://www.w3.org/2000/svg">
<path d="M6.79858 3.96915H1.48149C1.10183 3.96915 0.793991 4.27699 0.793991 4.65665V25.5299C0.794298 25.6444 0.822841 25.7573 0.877166 25.8583L3.53634 30.7457V30.746C3.65665 30.9673 3.88838 31.1048 4.14035 31.1048C4.39233 31.1048 4.62406 30.9673 4.74437 30.746L7.40291 25.8586V25.8583C7.45785 25.7577 7.4867 25.6447 7.4867 25.5299V4.65665C7.4867 4.47434 7.41427 4.29908 7.28536 4.17018C7.15615 4.04128 6.98121 3.96884 6.79859 3.96915H6.79858ZM6.11108 5.34415V8.00332H2.16899V5.34415H6.11108ZM4.1394 28.9784L2.16899 25.3556V9.37887H6.1117V25.3556L4.1394 28.9784ZM34.1553 9.99557C34.1206 9.93449 34.0859 9.87403 34.0509 9.81326L26.9276 1.15077C26.9209 1.14248 26.9092 1.1391 26.9021 1.13082C26.8564 1.08386 26.8042 1.04334 26.7475 1.01051C26.7257 0.993321 26.7026 0.977361 26.6787 0.962936C26.5922 0.92365 26.4985 0.902473 26.4037 0.901245H11.1805C10.8008 0.901245 10.493 1.20909 10.493 1.58874V30.4174C10.493 30.5997 10.5654 30.7746 10.6943 30.9035C10.8232 31.0324 10.9982 31.1049 11.1805 31.1049H33.5191C33.7014 31.1049 33.8764 31.0324 34.0053 30.9035C34.1342 30.7746 34.2066 30.5997 34.2066 30.4174V10.2473C34.2057 10.1605 34.1882 10.0748 34.1551 9.99503L34.1553 9.99557ZM27.0829 3.50204L32.0633 9.55879H27.0829V3.50204ZM11.8683 29.73V2.27083H25.7079V10.2458C25.7079 10.4281 25.7803 10.6031 25.9092 10.732C26.0381 10.8609 26.2131 10.9333 26.3954 10.9333H32.8318V29.73H11.8683Z" fill="#4C91FF"/>
</svg>
