<svg width="51" height="51" viewBox="0 0 51 51" fill="none" xmlns="http://www.w3.org/2000/svg">
<path d="M15.5769 9.24419H10.6465C10.2944 9.24419 10.009 9.52965 10.009 9.8817V29.2369C10.0093 29.3431 10.0357 29.4478 10.0861 29.5414L12.5519 34.0734V34.0736C12.6634 34.2788 12.8783 34.4063 13.112 34.4063C13.3456 34.4063 13.5605 34.2788 13.6721 34.0736L16.1372 29.5417V29.5414C16.1882 29.4481 16.2149 29.3433 16.2149 29.2369V9.8817C16.2149 9.71264 16.1478 9.55014 16.0282 9.43061C15.9084 9.31108 15.7462 9.24391 15.5769 9.24419H15.5769ZM14.9394 10.5192V12.985H11.284V10.5192H14.9394ZM13.1111 32.4346L11.284 29.0752V14.2605H14.9399V29.0752L13.1111 32.4346ZM40.944 14.8323C40.9118 14.7757 40.8796 14.7196 40.8472 14.6633L34.242 6.63079C34.2357 6.6231 34.2249 6.61997 34.2183 6.61229C34.1759 6.56875 34.1276 6.53118 34.0749 6.50073C34.0547 6.48479 34.0334 6.46999 34.0112 6.45662C33.9309 6.42019 33.8441 6.40055 33.7562 6.39941H19.6401C19.288 6.39941 19.0026 6.68487 19.0026 7.03691V33.7689C19.0026 33.938 19.0698 34.1002 19.1893 34.2197C19.3088 34.3392 19.471 34.4064 19.6401 34.4064H40.3541C40.5232 34.4064 40.6854 34.3392 40.8049 34.2197C40.9244 34.1002 40.9916 33.938 40.9916 33.7689V15.0658C40.9907 14.9852 40.9745 14.9058 40.9438 14.8318L40.944 14.8323ZM34.3859 8.81106L39.0041 14.4273H34.3859V8.81106ZM20.2779 33.1315V7.66939H33.1109V15.0644C33.1109 15.2334 33.1781 15.3957 33.2976 15.5152C33.4172 15.6347 33.5794 15.7019 33.7484 15.7019H39.7168V33.1315H20.2779Z" fill="#8FF58B"/>
</svg>
