<svg width="118" height="149" viewBox="0 0 118 149" fill="none" xmlns="http://www.w3.org/2000/svg">
<path d="M108.684 149C113.962 149 118 144.965 118 139.687V35.0772V34.7665C118 33.8354 117.689 33.214 117.069 32.5936C117.069 32.5936 117.069 32.2829 116.758 32.2829L88.8105 0.931077C88.4996 0.620357 88.1899 0.620358 87.8791 0.310719H87.5682C87.5682 1.32158e-07 87.2585 0 86.9477 0H9.31632C4.03766 0 0 4.03594 0 9.31298V139.687C0 144.964 4.03655 149 9.31632 149L108.684 149ZM89.7416 11.1759L107.752 31.6638H89.7416V11.1759ZM6.21032 139.687V9.31337C6.21032 7.45122 7.45255 6.20951 9.31529 6.20951H83.5309V34.7676C83.5309 36.6298 84.7731 37.8715 86.6358 37.8715H111.788V139.687C111.788 141.55 110.546 142.791 108.683 142.791H9.31501C7.45111 142.791 6.21004 141.551 6.21004 139.687H6.21032Z" fill="#8FF58B"/>
<path d="M59.3101 48.4254C68.0045 48.4254 74.8363 37.8718 74.8363 29.1794C74.8363 20.4881 68.0045 13.6587 59.3101 13.6587C50.6156 13.6587 43.7838 20.4881 43.7838 29.1794C43.7838 37.8707 50.6156 48.4254 59.3101 48.4254ZM59.3101 19.8673C64.5887 19.8673 68.6264 24.2131 68.6264 29.1802C68.6264 34.7677 63.9682 42.2174 59.3101 42.2174C54.6519 42.2174 49.9938 34.7677 49.9938 29.1802C49.9938 24.2131 54.0303 19.8673 59.3101 19.8673V19.8673Z" fill="#8FF58B"/>
<path d="M36.9523 84.4338H80.7364C82.5992 84.4338 83.8413 83.192 83.8413 81.3299V72.3279C83.5305 60.5324 74.2153 51.2197 62.4148 51.2197H54.9625C43.4728 51.2197 33.8468 60.2217 33.5359 72.0172V81.3302C33.8479 82.8816 35.0901 84.4341 36.9528 84.4341L36.9523 84.4338ZM55.2727 57.1176H62.7251C71.1087 57.1176 77.6308 63.947 77.9405 72.018V77.9162L40.0564 77.9151V71.7074C40.3673 63.6363 46.8883 57.1176 55.2719 57.1176L55.2727 57.1176Z" fill="#8FF58B"/>
<path d="M35.3997 102.127H83.8417C85.7045 102.127 86.9466 100.885 86.9466 99.0233C86.9466 97.1612 85.7044 95.9194 83.8417 95.9194H35.3997C33.5369 95.9194 32.2947 97.1612 32.2947 99.0233C32.2947 100.885 33.8478 102.127 35.3997 102.127Z" fill="#8FF58B"/>
<path d="M21.1155 118.579H97.1942C99.0571 118.579 100.299 117.338 100.299 115.475C100.299 113.613 99.057 112.372 97.1942 112.372H21.1155C19.2527 112.372 18.0106 113.613 18.0106 115.475C18.0106 117.338 19.5636 118.579 21.1155 118.579Z" fill="#8FF58B"/>
<path d="M20.8049 135.342H96.8836C98.7464 135.342 99.9885 134.1 99.9885 132.238C99.9885 130.376 98.7463 129.134 96.8836 129.134H20.8049C18.942 129.134 17.6999 130.376 17.6999 132.238C17.6999 134.1 18.9421 135.342 20.8049 135.342Z" fill="#8FF58B"/>
</svg>
