<svg width="89" height="112" viewBox="0 0 89 112" fill="none" xmlns="http://www.w3.org/2000/svg">
<path d="M81.6951 112C85.663 112 88.698 108.967 88.698 105V26.3668V26.1332C88.698 25.4333 88.4643 24.9662 87.9979 24.4999C87.9979 24.4999 87.9979 24.2664 87.7642 24.2664L66.7569 0.69987C66.5232 0.466309 66.2904 0.466309 66.0567 0.233561H65.8231C65.8231 9.93403e-08 65.5903 0 65.3566 0H7.00287C3.03502 0 0 3.03373 0 7.00036V105C0 108.966 3.03419 112 7.00287 112L81.6951 112ZM67.4568 8.40065L80.9951 23.8009H67.4568V8.40065ZM4.66816 105V7.00066C4.66816 5.60092 5.60192 4.66755 7.0021 4.66755H62.7883V26.1341C62.7883 27.5338 63.722 28.4672 65.1222 28.4672H84.0286V105C84.0286 106.4 83.0949 107.333 81.6947 107.333H7.00189C5.60084 107.333 4.66795 106.4 4.66795 105H4.66816Z" fill="#4C91FF"/>
<path d="M44.5821 36.4004C51.1175 36.4004 56.2529 28.4676 56.2529 21.9337C56.2529 15.4006 51.1175 10.2671 44.5821 10.2671C38.0467 10.2671 32.9114 15.4006 32.9114 21.9337C32.9114 28.4667 38.0467 36.4004 44.5821 36.4004ZM44.5821 14.9339C48.55 14.9339 51.585 18.2006 51.585 21.9343C51.585 26.1343 48.0836 31.734 44.5821 31.734C41.0807 31.734 37.5793 26.1343 37.5793 21.9343C37.5793 18.2006 40.6134 14.9339 44.5821 14.9339Z" fill="#4C91FF"/>
<path d="M27.7762 63.4668H60.6878C62.088 63.4668 63.0217 62.5333 63.0217 61.1336V54.367C62.7881 45.5006 55.786 38.5005 46.9159 38.5005H41.3141C32.6775 38.5005 25.4419 45.2671 25.2083 54.1335V61.1339C25.4427 62.3 26.3765 63.467 27.7767 63.467L27.7762 63.4668ZM41.5473 42.9338H47.1491C53.4509 42.9338 58.3534 48.0673 58.5862 54.1341V58.5676L30.1096 58.5668V53.9006C30.3432 47.8338 35.2449 42.9338 41.5467 42.9338L41.5473 42.9338Z" fill="#4C91FF"/>
<path d="M26.6091 76.7668H63.0218C64.4221 76.7668 65.3558 75.8334 65.3558 74.4337C65.3558 73.034 64.422 72.1006 63.0218 72.1006H26.6091C25.2088 72.1006 24.2751 73.034 24.2751 74.4337C24.2751 75.8334 25.4426 76.7668 26.6091 76.7668Z" fill="#4C91FF"/>
<path d="M15.872 89.1335H73.0587C74.4589 89.1335 75.3927 88.2001 75.3927 86.8004C75.3927 85.4007 74.4589 84.4673 73.0587 84.4673H15.872C14.4718 84.4673 13.5381 85.4007 13.5381 86.8004C13.5381 88.2001 14.7055 89.1335 15.872 89.1335Z" fill="#4C91FF"/>
<path d="M15.6386 101.733H72.8253C74.2255 101.733 75.1592 100.8 75.1592 99.4C75.1592 98.0003 74.2255 97.0669 72.8253 97.0669H15.6386C14.2384 97.0669 13.3047 98.0003 13.3047 99.4C13.3047 100.8 14.2385 101.733 15.6386 101.733Z" fill="#4C91FF"/>
</svg>
