<svg width="64" height="64" viewBox="0 0 64 64" fill="none" xmlns="http://www.w3.org/2000/svg">
<path d="M40.8923 24.9546H48.9309C48.7788 20.9281 47.2174 17.2588 44.7245 14.4238C42.947 15.3617 41.0234 16.1099 38.9927 16.6252C40.1541 19.2377 40.8074 22.0559 40.8923 24.9542V24.9546Z" fill="#4C91FF"/>
<path d="M24.3986 24.9546H31.354V17.4724C29.629 17.4338 27.9333 17.2456 26.2907 16.9103C25.1357 19.4257 24.4854 22.1521 24.3986 24.9545V24.9546Z" fill="#4C91FF"/>
<path d="M31.3545 41.2142V35.0195C29.8327 35.0542 28.3331 35.2027 26.8784 35.4785C28.0159 37.5938 29.5242 39.5324 31.3545 41.2141V41.2142Z" fill="#4C91FF"/>
<path d="M26.88 15.7193C28.3339 15.9954 29.8332 16.1465 31.3543 16.1811V9.98572C29.5246 11.6678 28.0168 13.6054 26.88 15.7193V15.7193Z" fill="#4C91FF"/>
<path d="M26.2912 34.2894C27.9337 33.9544 29.6302 33.7666 31.3548 33.7276L31.3551 26.2455H24.3991C24.4859 29.048 25.1362 31.7733 26.2912 34.2894L26.2912 34.2894Z" fill="#4C91FF"/>
<path d="M30.859 8.69531C26.7261 8.97138 22.9957 10.7343 20.1975 13.4543C21.8703 14.3043 23.6764 14.9743 25.5785 15.4353C26.876 12.9239 28.6556 10.6357 30.8592 8.69531H30.859Z" fill="#4C91FF"/>
<path d="M25.579 35.765C23.6764 36.2254 21.8686 36.8936 20.1957 37.7425C22.9943 40.4643 26.7258 42.2282 30.86 42.5039C28.6564 40.5643 26.8772 38.2765 25.5792 35.765H25.579Z" fill="#4C91FF"/>
<path d="M23.1076 26.2455H15.0691C15.2212 30.2719 16.7837 33.9412 19.2766 36.7762C21.0538 35.8384 22.9774 35.0908 25.0074 34.5756C23.8459 31.9638 23.1934 29.1449 23.1077 26.2459L23.1076 26.2455Z" fill="#4C91FF"/>
<path d="M25.0066 16.6272C22.9759 16.1115 21.0523 15.364 19.2751 14.4261C16.7826 17.2604 15.2212 20.929 15.0691 24.9551H23.1076C23.1934 22.0569 23.8459 19.2383 25.0066 16.6272Z" fill="#4C91FF"/>
<path d="M37.12 35.4815C35.6661 35.2055 34.1671 35.054 32.646 35.019V41.2137C34.475 39.5326 35.9832 37.5959 37.12 35.4816V35.4815Z" fill="#4C91FF"/>
<path d="M38.421 15.4368C40.3232 14.975 42.1289 14.3033 43.801 13.4539C41.0021 10.7343 37.2714 8.97143 33.1396 8.69604C35.3438 10.6361 37.1235 12.9243 38.4214 15.4368H38.421Z" fill="#4C91FF"/>
<path d="M38.9915 34.5783C41.0226 35.0933 42.9476 35.8369 44.7247 36.7746C47.2173 33.9404 48.7787 30.2711 48.9308 26.2457H40.8922C40.8076 29.1454 40.1537 31.965 38.9915 34.5783Z" fill="#4C91FF"/>
<path d="M33.1392 42.5042C37.2717 42.2288 41.0031 40.466 43.8016 37.7456C42.1287 36.8963 40.323 36.2249 38.4208 35.7638C37.123 38.2756 35.3433 40.5642 33.139 42.5042H33.1392Z" fill="#4C91FF"/>
<path d="M32.6455 9.98669V16.1813C34.1673 16.1467 35.6651 15.9946 37.1187 15.7185C35.9826 13.6046 34.4744 11.6677 32.6455 9.98674V9.98669Z" fill="#4C91FF"/>
<path d="M37.7079 16.9106C36.0654 17.2449 34.3696 17.4335 32.6447 17.4724V24.9549H39.6C39.5139 22.1521 38.8636 19.4267 37.7079 16.9107V16.9106Z" fill="#4C91FF"/>
<path d="M39.6014 26.2455H32.646V33.7287C34.371 33.7673 36.0682 33.9523 37.7103 34.287C38.8646 31.7719 39.5146 29.047 39.6015 26.2455L39.6014 26.2455Z" fill="#4C91FF"/>
</svg>
